<?xml version="1.0" encoding="UTF-8"?>
<svg width="54px" height="75px" viewBox="0 0 54 75" version="1.1" xmlns="http://www.w3.org/2000/svg" xmlns:xlink="http://www.w3.org/1999/xlink">
    <!-- Generator: Sketch 49.3 (51167) - http://www.bohemiancoding.com/sketch -->
    <title>Chevron w Techron Logo Lockup</title>
    <desc>Created with Sketch.</desc>
    <defs>
        <polygon id="path-1" points="0.000233965673 0.544932249 7.04377055 0.544932249 7.04377055 10.4221572 0.000233965673 10.4221572"></polygon>
        <linearGradient x1="12.1561863%" y1="104.703528%" x2="87.1091672%" y2="-35.8683052%" id="linearGradient-3">
            <stop stop-color="#007AC2" offset="0%"></stop>
            <stop stop-color="#007BC3" offset="15.03%"></stop>
            <stop stop-color="#007FC5" offset="30.03%"></stop>
            <stop stop-color="#0085C9" offset="45.02%"></stop>
            <stop stop-color="#3190CE" offset="60.02%"></stop>
            <stop stop-color="#609FD6" offset="75.02%"></stop>
            <stop stop-color="#8CB5E0" offset="89.83%"></stop>
            <stop stop-color="#ADC8E9" offset="100%"></stop>
        </linearGradient>
    </defs>
    <g id="Mobile-Explorations" stroke="none" stroke-width="1" fill="none" fill-rule="evenodd">
        <g id="Current-landing-view-UI-Copy-2" transform="translate(-161.000000, -54.000000)">
            <g id="Chevron-w-Techron-Logo-Lockup" transform="translate(161.000000, 54.000000)">
                <polygon id="Fill-1" fill="#0073BD" points="2 28 26 20 2 12"></polygon>
                <polygon id="Fill-2" fill="#00AEEF" points="26.5011766 20 2 28 26.5011766 36 51 28 51 12"></polygon>
                <polygon id="Fill-3" fill="#98002E" points="2.00230448 46 26 37.9982718 2 30"></polygon>
                <polygon id="Fill-4" fill="#E31837" points="26.4935293 37.9973112 2 45.9980794 26.4982353 54 51 45.9980794 51 30"></polygon>
                <g id="Group-20" transform="translate(2.000000, 0.000000)">
                    <g id="Group-7">
                        <mask id="mask-2" fill="white">
                            <use xlink:href="#path-1"></use>
                        </mask>
                        <g id="Clip-6"></g>
                        <path d="M7.04377055,10.0083902 C6.67644444,10.1967913 5.93009395,10.4221572 4.82343631,10.4221572 C1.75965583,10.4221572 0.000233965673,8.27343089 0.000233965673,5.53207588 C0.000233965673,2.26963686 2.24279494,0.544216802 5.02581662,0.544216802 C6.10673803,0.544216802 6.67761427,0.755273713 7.04377055,0.953214092 L6.70452033,2.90519241 C6.29274074,2.72036856 5.86107407,2.55104607 5.11238392,2.55104607 C3.78579855,2.55104607 2.37615537,3.35473171 2.37615537,5.49511111 C2.37615537,7.41131707 3.49919061,8.42248238 5.12291238,8.42248238 C5.76280849,8.42248238 6.2003243,8.29727913 6.70452033,8.06118157 L7.04377055,10.0083902 Z" id="Fill-5" fill="#0073BD" mask="url(#mask-2)"></path>
                    </g>
                    <path d="M19.9638229,5.84079133 C19.9638229,5.32209214 19.7158193,4.41347425 18.7542204,4.41347425 C17.9107742,4.41347425 17.5142023,5.15396206 17.4545411,5.84079133 L19.9638229,5.84079133 Z M17.468579,7.34442276 C17.5457877,8.23873171 18.2722511,8.71211924 19.3952864,8.72285095 C20.0714472,8.7276206 20.8575718,8.52968022 21.3816549,8.21369106 L21.6951689,9.86160434 C20.9067046,10.2622547 20.0047669,10.4220379 19.0887913,10.4220379 C16.616944,10.4220379 15.2926983,8.90409756 15.2926983,6.58366396 C15.2926983,4.33954472 16.7175492,2.89195664 18.8513162,2.89195664 C21.0505935,2.89195664 22.0367588,4.54344715 22.0367588,6.60989702 C22.0367588,6.82691599 22.0098528,7.18344715 21.9864562,7.34442276 L17.468579,7.34442276 Z" id="Fill-8" fill="#0073BD"></path>
                    <polygon id="Fill-10" fill="#0073BD" points="24.4770208 10.1277507 22.1829874 3.18672087 24.4735113 3.18672087 25.7193785 8.09588076 25.7614923 8.09588076 27.0073595 3.18672087 29.2978835 3.18672087 27.0050199 10.1277507"></polygon>
                    <path d="M29.8868921,5.4681626 C29.8868921,4.44626558 29.8553067,3.78209214 29.8131929,3.18707859 L31.7691459,3.18707859 L31.8276373,4.47607588 L31.8802796,4.47607588 C32.2218695,3.45537127 32.879313,3.06664499 33.554304,3.0284878 C33.8760068,3.0082168 34.0491414,3.03206504 34.249182,3.07141463 L34.249182,5.10209214 C34.0585,5.06393496 33.6806454,5.01743089 33.4150944,5.04366396 C32.6161016,5.11878591 32.1317927,5.70902981 31.9972624,6.39347425 C31.9691865,6.53179404 31.9551486,6.69276965 31.9551486,6.87401626 L31.9551486,10.1281084 L29.8868921,10.1281084 L29.8868921,5.4681626 Z" id="Fill-12" fill="#0073BD"></path>
                    <path d="M39.3923324,6.65699729 C39.3923324,5.52659079 39.0109684,4.54404336 38.0201238,4.54404336 C37.0292791,4.54404336 36.6490849,5.52659079 36.6490849,6.65699729 C36.6490849,7.78859621 37.0292791,8.76875881 38.0201238,8.76875881 C39.0109684,8.76875881 39.3923324,7.78859621 39.3923324,6.65699729 M41.5436468,6.65699729 C41.5436468,8.92854201 40.199514,10.4226341 38.0201238,10.4226341 C35.8419033,10.4226341 34.4954309,8.92854201 34.4954309,6.65699729 C34.4954309,4.38068293 35.8419033,2.89136043 38.0201238,2.89136043 C40.199514,2.89136043 41.5436468,4.38068293 41.5436468,6.65699729" id="Fill-14" fill="#0073BD"></path>
                    <path d="M42.4671093,5.39936043 C42.4671093,4.53366938 42.4355239,3.79318157 42.3922403,3.1862439 L44.3481933,3.1862439 L44.391477,4.1556748 L44.4347606,4.1556748 C44.704991,3.7061355 45.4220958,2.96445528 46.5404517,2.96445528 C47.9103207,2.96445528 48.8028997,3.91480759 48.8028997,5.95860163 L48.8028997,10.1272737 L46.728794,10.1272737 L46.728794,6.27697561 C46.728794,5.38505149 46.4281481,4.77453659 45.6782882,4.77453659 C45.1015628,4.77453659 44.7447651,5.18711111 44.6114047,5.58299187 C44.5611021,5.7260813 44.5423848,5.92402168 44.5423848,6.12315447 L44.5423848,10.1272737 L42.4671093,10.1272737 L42.4671093,5.39936043 Z" id="Fill-16" fill="#0073BD"></path>
                    <path d="M12.1304182,2.96445528 C11.3056893,2.96445528 10.5066965,3.34483469 10.100766,3.95773442 L10.0750298,3.95773442 L10.0750298,0.579631436 L8.00092412,1.31177236 L8.00092412,10.1272737 L10.0750298,10.1272737 L10.0750298,6.00868293 C10.0750298,5.41486179 10.4540542,4.775729 11.1816874,4.775729 C11.9596233,4.775729 12.2602692,5.39936043 12.2602692,6.3055935 L12.2602692,10.1272737 L14.3378844,10.1272737 L14.3378844,6.01345257 C14.3378844,3.916 13.454664,2.96445528 12.1304182,2.96445528" id="Fill-18" fill="#0073BD"></path>
                </g>
                <g id="ctx_lockup" transform="translate(0.000000, 57.000000)" fill-rule="nonzero">
                    <g id="Group">
                        <path d="M52.352597,7.758 C52.352597,7.36791045 52.6690746,7.04928358 53.0610448,7.04928358 C53.4481791,7.04928358 53.766806,7.36791045 53.766806,7.758 C53.766806,8.14728358 53.4481791,8.46537313 53.0610448,8.46537313 C52.668806,8.46537313 52.352597,8.14728358 52.352597,7.758 Z M52.5409254,7.758 C52.5409254,8.05862687 52.783791,8.27731343 53.0610448,8.27731343 C53.3345373,8.27731343 53.5800896,8.05889552 53.5800896,7.758 C53.5800896,7.4538806 53.3345373,7.23734328 53.0610448,7.23734328 C52.783791,7.23734328 52.5409254,7.4538806 52.5409254,7.758 Z M52.928597,8.11853731 L52.7663284,8.11853731 L52.7663284,7.37623881 L53.1209552,7.37623881 C53.1838209,7.37623881 53.2662985,7.37838806 53.3186866,7.41035821 C53.3869254,7.45226866 53.406806,7.5339403 53.406806,7.61050746 C53.406806,7.74591045 53.3353433,7.79991045 53.2058507,7.81629851 L53.3853134,8.11853731 L53.198597,8.11853731 L53.0360597,7.81629851 L52.928597,7.81629851 L52.928597,8.11853731 Z M53.1249851,7.68116418 C53.2063881,7.68250746 53.2367463,7.66316418 53.2367463,7.5879403 C53.2367463,7.51164179 53.1596418,7.51164179 53.089791,7.51164179 L52.928597,7.51164179 L52.928597,7.68116418 L53.1249851,7.68116418 Z" id="Shape" fill="#67737A"></path>
                        <g fill="#67737A">
                            <polygon id="Shape" points="12.3641194 10.5415522 12.366806 10.5391343 9.02847761 10.5391343 9.02847761 8.63220896 12.9860597 8.63220896 12.9855224 7.04928358 7.10274627 7.04928358 7.10274627 15.6143284 12.9898209 15.6143284 13.0027164 14.032209 9.02847761 14.032209 9.02847761 12.0728955 10.9684478 12.0667164"></polygon>
                            <path d="M18.5534328,10.339791 C18.5413433,9.39116418 18.1375522,8.45677612 17.0384776,8.45677612 C15.6291045,8.45677612 15.4122985,10.3827761 15.4122985,11.4189851 C15.4122985,12.5924776 15.6291045,14.1818507 17.1378806,14.1818507 C18.0749552,14.1818507 18.4988955,13.4441194 18.6109254,12.6206866 L20.5726567,12.6239104 C20.3598806,14.5842985 19.0120299,15.7379104 17.0387463,15.7379104 C14.4926866,15.7379104 13.2563284,13.6654925 13.2563284,11.3311343 C13.2563284,8.95997015 14.5297612,6.92408955 17.1016119,6.92408955 C19.2487164,6.92408955 20.348597,8.28322388 20.5726567,10.3438209 L18.5534328,10.339791 Z" id="Shape"></path>
                            <path d="M32.0934627,12.2316716 L32.0888955,15.6143284 L30.1690746,15.6143284 L30.1690746,7.04928358 L33.704597,7.04928358 C34.4632836,7.04928358 35.2399701,7.06164179 35.9016716,7.48558209 C36.6001791,7.9479403 36.9873134,8.78480597 36.9873134,9.62167164 C36.9873134,10.5950149 36.3954627,11.493403 35.4728955,11.8311045 L38.8966567,17.8823284 C38.8966567,17.8823284 37.746,17.8823284 37.314,17.8823284 C36.9319701,17.8823284 36.7608358,17.6241493 36.6302687,17.3995522 C36.4991642,17.1744179 33.6183582,12.2316716 33.6183582,12.2316716 L32.0934627,12.2316716 Z M33.3572239,10.8330448 C33.3572239,10.8330448 34.1564776,10.8112836 34.4208358,10.6554627 C34.7456418,10.4561194 35.1034925,10.1772537 35.1096716,9.60904478 C35.1139701,9.11686567 34.8283881,8.82779104 34.5393134,8.65235821 C34.2029552,8.43985075 33.5170746,8.4941194 33.1425672,8.4941194 L32.0891642,8.4941194 L32.0891642,10.7564776 L32.0937313,12.2252239 L33.3572239,10.8330448 Z" id="Shape"></path>
                            <path d="M38.340806,14.3903284 C37.7175224,13.5045672 37.4434925,12.3931343 37.4434925,11.3190448 C37.4434925,9.04620896 38.5796418,6.92408955 41.112806,6.92408955 C42.2492239,6.92408955 43.1486866,7.29913433 43.8361791,8.23567164 C44.4473731,9.07226866 44.7590149,10.2825672 44.7590149,11.3193134 C44.7590149,12.293194 44.4965373,13.4793134 43.9487463,14.2917313 C43.2859701,15.264 42.2739403,15.7381791 41.1125373,15.7381791 C39.9519403,15.7381791 39.0156716,15.3381493 38.340806,14.3903284 Z M39.7864478,9.49889552 C39.582806,10.0211642 39.4347761,10.7723284 39.4347761,11.3203881 C39.4347761,12.4148955 39.6730746,14.2334328 41.1122687,14.2334328 C41.8137313,14.2334328 42.1946866,13.816209 42.4241194,13.167403 C42.6277612,12.6319701 42.7642388,11.905791 42.7642388,11.3327463 C42.7642388,10.6957612 42.6277612,9.94486567 42.372806,9.3581194 C42.1183881,8.77379104 41.7489851,8.4320597 41.1125373,8.4320597 C40.4118806,8.4320597 40.0309254,8.86191045 39.7864478,9.49889552 Z" id="Shape"></path>
                            <polygon id="Shape" points="51.9611642 15.614597 50.3298806 15.614597 47.0404478 9.85835821 46.9899403 9.85835821 46.9899403 15.614597 45.5150149 15.614597 45.5150149 7.04928358 47.5981791 7.04928358 50.4569552 12.1540299 50.4867761 12.1540299 50.4867761 7.04928358 51.9611642 7.04928358 51.9611642 15.614597"></polygon>
                            <rect id="Rectangle-path" x="21.6582985" y="7.04928358" width="1.91928358" height="8.56504478"></rect>
                            <rect id="Rectangle-path" x="26.881791" y="7.04928358" width="1.91820896" height="8.56504478"></rect>
                            <polygon id="Shape" points="6.40423881 7.07776119 4.17304478 7.07776119 4.17304478 15.6143284 2.27014925 15.6143284 2.27014925 7.07776119 0.0873134328 7.07776119 0.0873134328 5.38065672 6.40450746 5.38065672 6.40450746 7.07776119"></polygon>
                            <path d="M31.4312239,10.574597 C29.5659403,10.2315224 23.7339403,9.67459701 20.771194,13.5838209 L23.101791,15.3311642 C23.101791,15.3311642 23.7444179,10.2586567 31.4599701,10.6460597 L31.4312239,10.574597 Z" id="Shape"></path>
                            <g transform="translate(6.179104, 0.000000)" id="Shape">
                                <polygon points="4.80626866 5.86880597 3.70826866 5.86880597 3.05220896 3.15859701 3.03474627 3.15859701 2.3778806 5.86880597 1.33038806 5.86880597 0.0263283582 1.64659701 1.33038806 1.64659701 2.00444776 4.23134328 2.02029851 4.23134328 2.66131343 1.64659701 3.78349254 1.64659701 4.39065672 4.23913433 4.40704478 4.23913433 5.11361194 1.64659701 6.07835821 1.64659701"></polygon>
                                <path d="M7.81602985,1.26241791 L6.59337313,1.26241791 L6.59337313,0.0816716418 L7.81602985,0.0816716418 L7.81602985,1.26241791 Z M7.81602985,5.86880597 L6.59337313,5.86880597 L6.59337313,1.64659701 L7.81602985,1.64659701 L7.81602985,5.86880597 Z"></path>
                                <path d="M8.33910448,2.61053731 L8.33910448,1.63773134 L9.07898507,1.63773134 L9.18671642,0.39841791 L10.2511343,0.314597015 L10.2511343,1.63773134 L11.1578507,1.63773134 L11.1578507,2.61053731 L10.2511343,2.61053731 L10.2511343,4.29044776 C10.2511343,4.78020896 10.2511343,4.97901493 10.8421791,4.95510448 L11.2244776,4.93710448 L11.2244776,5.86101493 L11.1414627,5.8779403 C10.908,5.91152239 10.684209,5.95235821 10.4598806,5.95235821 C10.1106269,5.95235821 9.64531343,5.90238806 9.37128358,5.67832836 C9.0298209,5.39543284 9.0298209,4.88874627 9.0298209,4.4720597 L9.0298209,2.61080597 L8.33910448,2.61080597 L8.33910448,2.61053731 Z"></path>
                                <path d="M15.5141194,5.86880597 L14.2922687,5.86880597 L14.2922687,3.5900597 C14.2922687,3.22441791 14.3339104,2.53450746 13.8006269,2.53450746 C13.5762985,2.53450746 13.3194627,2.64277612 13.220597,2.8501791 C13.111791,3.07477612 13.111791,3.3418209 13.111791,3.5900597 L13.111791,5.86880597 L11.8896716,5.86880597 L11.8896716,0.165223881 L13.111791,0.165223881 L13.111791,2.22689552 L13.1284478,2.22689552 C13.2850746,1.80268657 13.7683881,1.56250746 14.2259104,1.56250746 C14.6165373,1.56250746 15.0324179,1.69549254 15.282,2.01868657 C15.5388358,2.35155224 15.5143881,2.77602985 15.5143881,3.18331343 L15.5143881,5.86880597 L15.5141194,5.86880597 Z"></path>
                            </g>
                        </g>
                        <path d="M31.3353134,10.4160896 C29.4708358,10.0724776 23.6385672,9.3699403 20.6758209,13.2788955 L22.9494627,14.9977612 C22.9494627,14.9977612 23.6861194,9.90510448 31.3643284,10.4872836 L31.3353134,10.4160896 Z" id="Shape" fill="url(#linearGradient-3)"></path>
                    </g>
                </g>
            </g>
        </g>
    </g>
</svg>